:FULLY-SPECIFIED
:FORCE-ALL-JOINTS-BE-3DOF
:DEGREES
1121
root 0.911939 14.7039 -28.4216 361.686 6.28064 363.278
lfemur -25.4665 5.86029 -22.0851
ltibia 71.1955 0 0
lfoot -26.8598 25.7302 -0.0123195
ltoes -19.6551 0 0
rfemur -63.4961 -8.96158 22.0974
rtibia 68.276 -0 0
rfoot 14.8486 1.34252 0.8536
rtoes -9.49972 0 0
lowerback 15.7949 0.93729 -10.7158
upperback -0.666699 -0.56641 2.14003
thorax -9.54961 0.334983 8.62339
lowerneck -4.7654 -3.48154 -5.45515
upperneck 4.7111 -4.55724 4.98934
head 2.62672 -2.22467 2.41134
lclavicle -3.92927e-15 -9.06013e-15 -6.55141e-30
lhumerus 71.6901 -39.007 48.5985
lradius 96.7172 -0 0
lwrist 27.5808 0 0
lhand -29.8117 32.5788 -0.485087
lfingers 7.12502 -0 0
lthumb -6.17524 71.6684 -0.0397049
rclavicle -4.95414e-14 -9.80389e-15 -7.25801e-31
rhumerus -26.8131 31.8012 -92.037
rradius 88.318 -0 0
rwrist -26.9895 0 0
rhand -20.5838 -45.9333 -0.190025
rfingers 7.12502 -0 0
rthumb 24.0918 -63.5955 0.867475
1122
root 0.867803 14.7358 -28.22 361.342 8.06128 363.219
lfemur -23.8308 5.17494 -21.8653
ltibia 71.1345 -0 0
lfoot -27.1912 25.8179 -0.0142269
ltoes -19.5533 0 0
rfemur -63.067 -9.04686 21.635
rtibia 68.178 -0 0
rfoot 16.9166 1.96158 0.796193
rtoes -9.4265 0 0
lowerback 15.6599 0.883437 -10.5301
upperback -0.722873 -0.583895 2.20295
thorax -9.53098 0.320452 8.58784
lowerneck -4.13509 -4.00006 -6.06388
upperneck 4.81926 -5.26774 5.34708
head 2.62609 -2.58816 2.62184
lclavicle -7.62277e-15 -1.12984e-14 -6.84349e-30
lhumerus 71.0102 -39.254 48.8704
lradius 96.8442 -0 0
lwrist 27.5564 0 0
lhand -28.6713 31.6835 -0.5412
lfingers 7.12502 -0 0
lthumb -5.85398 71.1812 -0.152814
rclavicle -4.66005e-14 -9.49702e-15 -7.4159e-31
rhumerus -21.9732 32.1709 -88.62
rradius 88.0505 -0 0
rwrist -24.6206 0 0
rhand -21.6189 -45.5 -0.219493
rfingers 7.12502 -0 0
rthumb 25.2965 -62.5268 0.784524
1123
root 0.821389 14.7709 -28.0143 360.972 9.73807 363.102
lfemur -22.3667 4.55485 -21.6851
ltibia 70.958 -0 0
lfoot -27.541 25.9105 -0.0156893
ltoes -19.4389 0 0
rfemur -62.388 -9.17451 20.9034
rtibia 68.1441 0 0
rfoot 18.9077 2.55547 0.719824
rtoes -9.30957 0 0
lowerback 15.4735 0.898743 -10.2681
upperback -0.638799 -0.484665 2.25764
thorax -9.35188 0.341446 8.46663
lowerneck -4.05909 -4.58737 -6.70672
upperneck 5.08022 -6.05494 5.79769
head 2.8005 -2.98137 2.86085
lclavicle -1.137e-14 -1.35692e-14 -6.99236e-30
lhumerus 69.0259 -39.9524 49.6818
lradius 96.8878 0 0
lwrist 27.5479 0 0
lhand -27.4838 30.7508 -0.580653
lfingers 7.12502 -0 0
lthumb -5.33798 70.4002 -0.328098
rclavicle -4.36454e-14 -9.18869e-15 -7.4159e-31
rhumerus -16.6141 32.2925 -84.8226
rradius 87.8497 -0 0
rwrist -22.3168 0 0
rhand -22.7114 -45.0423 -0.242094
rfingers 7.12502 -0 0
rthumb 26.438 -61.5145 0.685065
1124
root 0.778825 14.8072 -27.8072 360.587 11.4383 362.999
lfemur -21.1031 4.01503 -21.5422
ltibia 70.6755 -0 0
lfoot -27.903 26.0063 -0.0166076
ltoes -19.3136 0 0
rfemur -61.4885 -9.32992 19.9346
rtibia 68.1144 -0 0
rfoot 20.7961 3.11625 0.628322
rtoes -9.15307 0 0
lowerback 15.3063 0.827546 -10.0508
upperback -0.834001 -0.522896 2.32696
thorax -9.46593 0.329754 8.42673
lowerneck -2.86706 -5.00805 -7.41688
upperneck 5.161 -6.68236 6.21983
head 2.70514 -3.31534 3.13271
lclavicle -1.51352e-14 -1.58509e-14 -6.99236e-30
lhumerus 65.7944 -41.0191 51.0572
lradius 96.9359 -0 0
lwrist 27.6481 0 0
lhand -26.2679 29.7956 -0.601003
lfingers 7.12502 -0 0
lthumb -4.64241 69.3505 -0.552047
rclavicle -4.07045e-14 -8.88182e-15 -7.25801e-31
rhumerus -10.8422 32.0871 -80.7349
rradius 87.7234 -0 0
rwrist -20.1215 0 0
rhand -23.8422 -44.5683 -0.25629
rfingers 7.12502 -0 0
rthumb 27.5009 -60.5723 0.574151
1125
root 0.740275 14.8383 -27.5971 360.235 12.8723 362.827
lfemur -20.0689 3.57029 -21.434
ltibia 70.2968 -0 0
lfoot -28.2711 26.1037 -0.0169206
ltoes -19.1793 0 0
rfemur -60.398 -9.49759 18.7607
rtibia 68.0279 -0 0
rfoot 22.5567 3.63631 0.526366
rtoes -8.96117 0 0
lowerback 14.9638 0.787649 -9.70454
upperback -0.740253 -0.463829 2.43033
thorax -9.17682 0.322119 8.31588
lowerneck -2.94345 -5.49745 -8.11216
upperneck 5.6333 -7.33438 6.51038
head 2.98421 -3.64714 3.3312
lclavicle -1.88824e-14 -1.81218e-14 -6.84349e-30
lhumerus 61.3452 -42.3469 53.0512
lradius 97.0738 -0 0
lwrist 27.9397 0 0
lhand -25.0427 28.833 -0.601003
lfingers 7.12502 -0 0
lthumb -3.78221 68.057 -0.809705
rclavicle -3.78057e-14 -8.57936e-15 -6.94824e-31
rhumerus -4.78324 31.4921 -76.4688
rradius 87.6796 0 0
rwrist -18.0781 0 0
rhand -24.9922 -44.0861 -0.261129
rfingers 7.12502 -0 0
rthumb 28.4702 -59.7135 0.45759
1126
root 0.699485 14.8777 -27.383 359.791 14.4241 362.651
lfemur -19.2936 3.23527 -21.3582
ltibia 69.8314 -0 0
lfoot -28.6393 26.2011 -0.0166076
ltoes -19.0378 0 0
rfemur -59.1463 -9.66221 17.4139
rtibia 67.8887 -0 0
rfoot 24.164 4.10843 0.419313
rtoes -8.73804 0 0
lowerback 14.9311 0.676543 -9.3647
upperback -0.931583 -0.547799 2.50011
thorax -9.35293 0.285176 8.21878
lowerneck -2.26421 -5.83707 -8.7558
upperneck 6.26277 -7.87357 7.06332
head 2.8555 -3.9094 3.25947
lclavicle -2.25759e-14 -2.036e-14 -6.55141e-30
lhumerus 55.6943 -43.8045 55.7309
lradius 97.2912 -0 0
lwrist 28.4091 0 0
lhand -23.8268 27.8778 -0.580653
lfingers 7.12502 -0 0
lthumb -2.77252 66.5446 -1.08537
rclavicle -3.49772e-14 -8.28422e-15 -6.49848e-31
rhumerus 1.42532 30.4684 -72.1496
rradius 87.6923 -0 0
rwrist -16.23 0 0
rhand -26.1421 -43.6038 -0.25629
rfingers 7.12502 -0 0
rthumb 29.3307 -58.9515 0.341728
1127
root 0.662975 14.9215 -27.166 359.353 15.9334 362.518
lfemur -18.8065 3.02413 -21.3128
ltibia 69.289 -0 0
lfoot -29.0013 26.2969 -0.0156893
ltoes -18.8908 0 0
rfemur -57.7643 -9.80973 15.9274
rtibia 67.7008 -0 0
rfoot 25.5928 4.52569 0.313
rtoes -8.48784 0 0
lowerback 14.3769 0.554062 -9.13013
upperback -0.790809 -0.600987 2.62115
thorax -8.86654 0.217007 8.20885
lowerneck -1.97354 -6.19301 -9.27244
upperneck 6.59273 -8.37089 7.13463
head 2.97151 -4.172 3.34157
lclavicle -2.61799e-14 -2.2544e-14 -6.12734e-30
lhumerus 48.8633 -45.2381 59.1534
lradius 97.5785 -0 0
lwrist 29.0424 0 0
lhand -22.6393 26.9451 -0.5412
lfingers 7.12502 -0 0
lthumb -1.62901 64.8386 -1.3633
rclavicle -3.22472e-14 -7.99936e-15 -5.9262e-31
rhumerus 7.647 29.0032 -67.9035
rradius 87.7291 -0 0
rwrist -14.6206 0 0
rhand -27.2729 -43.1298 -0.242094
rfingers 7.12502 -0 0
rthumb 30.0678 -58.299 0.233205
1128
root 0.626439 14.963 -26.9459 358.849 17.3399 362.359
lfemur -18.6375 2.95075 -21.2975
ltibia 68.679 -0 0
lfoot -29.3511 26.3895 -0.0142269
ltoes -18.7403 0 0
rfemur -56.2833 -9.92819 14.335
rtibia 67.4684 -0 0
rfoot 26.8181 4.88148 0.213518
rtoes -8.21473 0 0
lowerback 14.1347 0.41264 -8.76359
upperback -0.862979 -0.70397 2.65352
thorax -8.78697 0.148581 8.0473
lowerneck -1.49002 -6.44314 -9.68581
upperneck 7.05306 -8.75035 7.13563
head 3.08029 -4.38084 3.39649
lclavicle -2.96584e-14 -2.4652e-14 -5.58774e-30
lhumerus 40.9084 -46.4767 63.3341
lradius 97.9254 -0 0
lwrist 29.8262 0 0
lhand -21.4989 26.0498 -0.485087
lfingers 7.12502 -0 0
lthumb -0.368138 62.9649 -1.62832
rclavicle -2.96437e-14 -7.72771e-15 -5.254e-31
rhumerus 13.7587 27.1114 -63.8442
rradius 87.7878 -0 0
rwrist -13.2931 0 0
rhand -28.3654 -42.6721 -0.219493
rfingers 7.12502 -0 0
rthumb 30.6666 -57.7692 0.138721
1129
root 0.590579 14.9998 -26.7255 358.399 18.6863 362.241
lfemur -18.4996 2.96792 -21.2558
ltibia 68.0114 -0 0
lfoot -29.6825 26.4772 -0.0123195
ltoes -18.5879 0 0
rfemur -54.7356 -10.0084 12.6714
rtibia 67.1954 -0 0
rfoot 27.8148 5.16942 0.126954
rtoes -7.92288 0 0
lowerback 13.8589 0.269982 -8.49753
upperback -0.866996 -0.818854 2.7281
thorax -8.61044 0.0724864 7.99023
lowerneck -1.33488 -6.63236 -10.068
upperneck 7.49704 -9.01414 7.04473
head 3.22444 -4.52889 3.41334
lclavicle -3.29757e-14 -2.66623e-14 -4.95393e-30
lhumerus 31.9559 -47.3437 68.2107
lradius 98.3222 -0 0
lwrist 30.7466 0 0
lhand -20.4242 25.2065 -0.41585
lfingers 7.12502 -0 0
lthumb 0.992683 60.9497 -1.86643
rclavicle -2.71949e-14 -7.47219e-15 -4.50908e-31
rhumerus 19.6604 24.8317 -60.063
rradius 87.8664 -0 0
rwrist -12.2914 0 0
rhand -29.4005 -42.2388 -0.190025
rfingers 7.12502 -0 0
rthumb 31.1127 -57.3747 0.0646494
1130
root 0.554029 15.0223 -26.5022 357.918 19.8689 362.119
lfemur -18.103 3.01674 -21.1358
ltibia 67.2956 -0 0
lfoot -29.9896 26.5585 -0.0100997
ltoes -18.4355 0 0
rfemur -53.1542 -10.0446 10.9717
rtibia 66.886 -0 0
rfoot 28.5577 5.38312 0.0591556
rtoes -7.61646 0 0
lowerback 13.6234 0.163811 -8.19961
upperback -0.836715 -0.889769 2.73665
thorax -8.42989 0.0132123 7.83157
lowerneck -1.28171 -6.80916 -10.2197
upperneck 7.84691 -9.2514 6.88557
head 3.34181 -4.65815 3.37212
lclavicle -3.60959e-14 -2.85531e-14 -4.25155e-30
lhumerus 22.2311 -47.6788 73.614
lradius 98.7589 -0 0
lwrist 31.7901 0 0
lhand -19.4337 24.4298 -0.337969
lfingers 7.12502 -0 0
lthumb 2.43504 58.8204 -2.06536
rclavicle -2.49288e-14 -7.23574e-15 -3.72247e-31
rhumerus 25.2789 22.2224 -56.6238
rradius 87.9628 -0 0
rwrist -11.6585 0 0
rhand -30.3593 -41.838 -0.155743
rfingers 7.12502 -0 0
rthumb 31.3911 -57.1285 0.0168073
